<?xml version="1.0" ?>
<!DOCTYPE svg  PUBLIC '-//W3C//DTD SVG 1.1//EN'  'http://www.w3.org/Graphics/SVG/1.1/DTD/svg11.dtd'>
<!-- Uploaded to: SVG Repo, www.svgrepo.com, Generator: SVG Repo Mixer Tools -->
<svg fill="#000000" width="800px" height="800px" viewBox="0 0 32 32" style="fill-rule:evenodd;clip-rule:evenodd;stroke-linejoin:round;stroke-miterlimit:2;" version="1.1" xml:space="preserve" xmlns="http://www.w3.org/2000/svg" xmlns:serif="http://www.serif.com/" xmlns:xlink="http://www.w3.org/1999/xlink">
<g transform="matrix(1,0,0,1,-48,0)">
<g transform="matrix(1.125,0,0,1,-8,-1.77636e-15)">
<path d="M71.196,10.9C71.148,9.836 70.367,9 69.42,9C66.684,9 61.316,9 58.58,9C57.633,9 56.852,9.836 56.804,10.9C56.638,14.653 56.267,22.991 56.093,26.9C56.069,27.447 56.245,27.982 56.581,28.378C56.916,28.775 57.382,29 57.869,29C60.948,29 67.052,29 70.131,29C70.618,29 71.084,28.775 71.419,28.378C71.755,27.982 71.931,27.447 71.907,26.9C71.733,22.991 71.362,14.653 71.196,10.9Z" style="fill:rgb(144,224,239);"/>
</g>
<path d="M59,8L57.903,8C56.304,8 54.986,9.254 54.906,10.85C54.719,14.603 54.302,22.941 54.106,26.85C54.065,27.671 54.363,28.472 54.929,29.068C55.495,29.663 56.281,30 57.102,30L70.898,30C71.719,30 72.505,29.663 73.071,29.068C73.637,28.472 73.935,27.671 73.894,26.85L73.094,10.85C73.014,9.254 71.696,8 70.097,8L69,8L69,6C69,3.24 66.76,1 64,1C61.24,1 59,3.24 59,6L59,8ZM69,10L69,12C69,12.552 68.552,13 68,13C67.448,13 67,12.552 67,12L67,10L61,10L61,12C61,12.552 60.552,13 60,13C59.448,13 59,12.552 59,12L59,10L57.903,10C57.37,10 56.93,10.418 56.904,10.95L56.104,26.95C56.09,27.224 56.189,27.491 56.378,27.689C56.567,27.888 56.829,28 57.103,28C57.103,28 70.897,28 70.898,28C71.171,28 71.433,27.888 71.622,27.689C71.811,27.491 71.91,27.224 71.896,26.95L71.096,10.95C71.07,10.418 70.63,10 70.097,10L69,10ZM67,8L67,6C67,4.344 65.656,3 64,3C62.344,3 61,4.344 61,6L61,8L67,8Z" style="fill:rgb(25,144,167);"/>
</g>
</svg>