<?xml version="1.0" encoding="UTF-8" standalone="no"?>
<!-- Uploaded to: SVG Repo, www.svgrepo.com, Generator: SVG Repo Mixer Tools -->
<svg width="800px" height="800px" viewBox="0 0 64 64" version="1.1" xmlns="http://www.w3.org/2000/svg" xmlns:xlink="http://www.w3.org/1999/xlink">
    
    <title>clo-t-hanger</title>
    <desc>Created with Sketch.</desc>
    <defs>

</defs>
    <g id="General" stroke="none" stroke-width="1" fill="none" fill-rule="evenodd">
        <g id="SLICES-64px" transform="translate(-180.000000, -200.000000)">

</g>
        <g id="ICONS" transform="translate(-175.000000, -195.000000)">
            <g id="clo-t-hanger" transform="translate(182.000000, 200.000000)">
                <path d="M32,12 L37.116,13.847 C38.994,14.598 40.601,15.901 41.723,17.584 L48,27 L40,32 L36,26 L36,52 L12,52 L12,26 L8,32 L0,27 L6.277,17.584 C7.399,15.901 9.006,14.598 10.884,13.847 L16,12 C16,15.313 19.582,18 24,18 C28.418,18 32,15.313 32,12" id="Fill-450" fill="#4BAADC">

</path>
                <path d="M32,12 L37.116,13.847 C38.994,14.598 40.601,15.901 41.723,17.584 L48,27 L40,32 L36,26 L36,52 L12,52 L12,26 L8,32 L0,27 L6.277,17.584 C7.399,15.901 9.006,14.598 10.884,13.847 L16,12 C16,15.313 19.582,18 24,18 C28.418,18 32,15.313 32,12 Z" id="Stroke-451" stroke="#1E69A0" stroke-width="2" stroke-linecap="round" stroke-linejoin="round">

</path>
                <path d="M24,12 L24,8" id="Stroke-452" stroke="#4BAADC" stroke-width="2" stroke-linecap="round" stroke-linejoin="round">

</path>
                <path d="M20,4 C20,1.791 21.791,0 24,0 C26.209,0 28,1.791 28,4 C28,6.209 26.209,8 24,8" id="Stroke-453" stroke="#4BAADC" stroke-width="2" stroke-linecap="round" stroke-linejoin="round">

</path>
                <path d="M20,12 L28,12" id="Stroke-454" stroke="#4BAADC" stroke-width="2" stroke-linecap="round" stroke-linejoin="round">

</path>
            </g>
        </g>
    </g>
</svg>