<svg xmlns="http://www.w3.org/2000/svg" version="1.1" xmlns:xlink="http://www.w3.org/1999/xlink" xmlns:svgjs="http://svgjs.dev/svgjs" width="2000" height="676" viewBox="0 0 2000 676"><g transform="matrix(1,0,0,1,-1.212115117903295,0.500156403113067)"><svg viewBox="0 0 396 134" data-background-color="#0080ff" preserveAspectRatio="xMidYMid meet" height="676" width="2000" xmlns="http://www.w3.org/2000/svg" xmlns:xlink="http://www.w3.org/1999/xlink"><g id="tight-bounds" transform="matrix(1,0,0,1,0.24000120665519376,-0.09914342901944906)"><svg viewBox="0 0 395.5199999999999 134.1982868580389" height="134.1982868580389" width="395.5199999999999"><g><svg viewBox="0 0 577.9608596211863 196.0997098305085" height="134.1982868580389" width="395.5199999999999"><g><rect width="12.796291032862372" height="170.27471186440678" x="136.14642452323915" y="12.912498983050853" fill="#010c80" opacity="1" stroke-width="0" stroke="transparent" fill-opacity="1" class="rect-o-0" data-fill-palette-color="primary" rx="1%" id="o-0" data-palette-color="#010c80"></rect></g><g transform="matrix(1,0,0,1,182.44085962118626,27.102058305084753)"><svg viewBox="0 0 395.52 141.89559322033898" height="141.89559322033898" width="395.52"><g id="textblocktransform"><svg viewBox="0 0 395.52 141.89559322033898" height="141.89559322033898" width="395.52" id="textblock"><g><svg viewBox="0 0 395.52 141.89559322033898" height="141.89559322033898" width="395.52"><g transform="matrix(1,0,0,1,0,0)"><svg width="395.52" viewBox="1.7000000476837158 -47 194.6800079345703 69.8499984741211" height="141.89559322033898" data-palette-color="#010c80"><path d="M16.35 0.4Q9.7 0.4 5.7-2.13 1.7-4.65 1.7-9.85L1.7-9.85Q1.7-12.6 2.65-14.05 3.6-15.5 5.45-15.5L5.45-15.5Q6.8-15.5 7.65-14.8 8.5-14.1 8.5-13L8.5-13Q8.5-12 8.35-11.25L8.35-11.25Q8.35-11.05 8.28-10.55 8.2-10.05 8.2-9.5L8.2-9.5Q8.2-7.25 10.48-6.15 12.75-5.05 16.85-5.05L16.85-5.05Q21.1-5.05 23.5-6.58 25.9-8.1 25.9-10.85L25.9-10.85Q25.9-12.55 24.8-13.78 23.7-15 22.05-15.83 20.4-16.65 17.4-17.85L17.4-17.85Q13.55-19.35 11.13-20.7 8.7-22.05 6.98-24.38 5.25-26.7 5.25-30.15L5.25-30.15Q5.25-33.75 7.18-36.55 9.1-39.35 12.73-40.9 16.35-42.45 21.25-42.45L21.25-42.45Q24.9-42.45 27.95-41.38 31-40.3 32.83-38.1 34.65-35.9 34.65-32.7L34.65-32.7Q34.65-29.55 33.7-27.95 32.75-26.35 30.9-26.35L30.9-26.35Q29.6-26.35 28.73-27.15 27.85-27.95 27.85-29.05L27.85-29.05Q27.85-30 28-30.8L28-30.8Q28.15-32.3 28.15-32.7L28.15-32.7Q28.15-34.8 26.1-35.9 24.05-37 21-37L21-37Q16.7-37 14.43-35.43 12.15-33.85 12.15-31L12.15-31Q12.15-29.1 13.33-27.75 14.5-26.4 16.25-25.5 18-24.6 21.15-23.35L21.15-23.35Q24.95-21.8 27.25-20.55 29.55-19.3 31.18-17.15 32.8-15 32.8-11.85L32.8-11.85Q32.8-5.95 28.33-2.78 23.85 0.4 16.35 0.4L16.35 0.4ZM64.3-11.15Q64.95-11.15 65.32-10.55 65.7-9.95 65.7-8.9L65.7-8.9Q65.7-6.9 64.75-5.8L64.75-5.8Q62.45-3.15 60.02-1.45 57.6 0.25 54.5 0.25L54.5 0.25Q51.95 0.25 50.65-1.23 49.35-2.7 49.35-5.5L49.35-5.5Q49.35-6.9 50.05-10.5L50.05-10.5Q50.7-13.65 50.7-14.85L50.7-14.85Q50.7-15.65 50.15-15.65L50.15-15.65Q49.5-15.65 48.3-13.98 47.1-12.3 45.9-9.55 44.7-6.8 43.95-3.75L43.95-3.75Q43 0.25 39.25 0.25L39.25 0.25Q37.75 0.25 37.27-0.83 36.8-1.9 36.8-4.7L36.8-4.7Q36.8-6.3 36.85-7.25L36.85-7.25 36.9-11.25Q36.9-18.95 38.47-27.3 40.05-35.65 43.12-41.33 46.2-47 50.5-47L50.5-47Q52.8-47 54.22-45.03 55.65-43.05 55.65-39.9L55.65-39.9Q55.65-34.85 52.7-29.43 49.75-24 43.1-16.75L43.1-16.75Q42.95-14.15 42.95-11.4L42.95-11.4Q44.6-15.65 46.62-18.32 48.65-21 50.62-22.15 52.6-23.3 54.25-23.3L54.25-23.3Q57.5-23.3 57.5-20.05L57.5-20.05Q57.5-18.1 56.4-13L56.4-13Q55.45-8.65 55.45-7.25L55.45-7.25Q55.45-5.25 56.9-5.25L56.9-5.25Q57.9-5.25 59.27-6.48 60.65-7.7 62.95-10.45L62.95-10.45Q63.55-11.15 64.3-11.15L64.3-11.15ZM49.45-42.05Q48.55-42.05 47.45-39.48 46.35-36.9 45.32-32.52 44.3-28.15 43.65-23L43.65-23Q46.75-26.65 48.77-30.95 50.8-35.25 50.8-38.75L50.8-38.75Q50.8-40.35 50.45-41.2 50.1-42.05 49.45-42.05L49.45-42.05ZM87.15-15.35Q87.8-15.35 88.15-14.7 88.5-14.05 88.5-13.05L88.5-13.05Q88.5-10.65 87.05-10.2L87.05-10.2Q84.05-9.15 80.45-9L80.45-9Q79.5-4.8 76.7-2.27 73.9 0.25 70.34 0.25L70.34 0.25Q67.34 0.25 65.22-1.2 63.1-2.65 62-5.05 60.9-7.45 60.9-10.25L60.9-10.25Q60.9-14.05 62.35-17.03 63.8-20 66.34-21.68 68.9-23.35 72-23.35L72-23.35Q75.8-23.35 78.12-20.73 80.45-18.1 80.84-14.25L80.84-14.25Q83.2-14.4 86.45-15.25L86.45-15.25Q86.84-15.35 87.15-15.35L87.15-15.35ZM70.75-5.05Q72.34-5.05 73.52-6.35 74.7-7.65 75.09-10.1L75.09-10.1Q73.55-11.15 72.72-12.85 71.9-14.55 71.9-16.45L71.9-16.45Q71.9-17.25 72.05-18.05L72.05-18.05 71.8-18.05Q69.8-18.05 68.47-16.13 67.15-14.2 67.15-10.7L67.15-10.7Q67.15-7.95 68.22-6.5 69.3-5.05 70.75-5.05L70.75-5.05ZM110.89-11.15Q111.54-11.15 111.92-10.55 112.29-9.95 112.29-8.9L112.29-8.9Q112.29-6.9 111.34-5.8L111.34-5.8Q109.19-3.15 106.72-1.45 104.24 0.25 101.09 0.25L101.09 0.25Q98.44 0.25 96.79-1.65L96.79-1.65Q93.94 0.2 90.84 0.25L90.84 0.25Q90.19 9.9 87.89 16.38 85.59 22.85 81.14 22.85L81.14 22.85Q78.44 22.85 77.14 20.9 75.84 18.95 75.84 15.5L75.84 15.5Q75.84 10.6 78.09 4.08 80.34-2.45 85.04-10.3L85.04-10.3Q85.04-17.6 84.94-20.45L84.94-20.45Q84.89-21.9 86.09-22.75 87.29-23.6 89.09-23.6L89.09-23.6Q90.14-23.6 90.62-23.18 91.09-22.75 91.14-21.5L91.14-21.5Q91.14-20.25 91.19-19.65L91.19-19.65Q92.79-21.65 94.34-22.53 95.89-23.4 97.64-23.4L97.64-23.4Q100.44-23.4 102.22-21.15 103.99-18.9 103.99-15.25L103.99-15.25Q103.99-12.6 103.14-10.1 102.29-7.6 100.79-5.55L100.79-5.55Q101.84-5.25 102.54-5.25L102.54-5.25Q104.19-5.25 105.69-6.45 107.19-7.65 109.54-10.45L109.54-10.45Q110.14-11.15 110.89-11.15L110.89-11.15ZM91.09-4.55Q92.89-4.95 94.42-6.53 95.94-8.1 96.84-10.43 97.74-12.75 97.74-15.3L97.74-15.3Q97.74-16.8 97.14-17.57 96.54-18.35 95.54-18.35L95.54-18.35Q93.74-18.35 91.19-14.55L91.19-14.55Q91.14-12.35 91.14-8.1L91.14-8.1Q91.14-5.8 91.09-4.55L91.09-4.55ZM81.54 17.95Q82.89 17.95 83.79 12.08 84.69 6.2 84.94-2.55L84.94-2.55Q82.79 2.45 81.54 7 80.29 11.55 80.29 14.65L80.29 14.65Q80.29 16.25 80.67 17.1 81.04 17.95 81.54 17.95L81.54 17.95ZM134.94-11.15Q135.59-11.15 135.97-10.55 136.34-9.95 136.34-8.9L136.34-8.9Q136.34-6.9 135.39-5.8L135.39-5.8Q133.24-3.15 130.77-1.45 128.29 0.25 125.14 0.25L125.14 0.25Q122.49 0.25 120.84-1.65L120.84-1.65Q117.99 0.2 114.89 0.25L114.89 0.25Q114.24 9.9 111.94 16.38 109.64 22.85 105.19 22.85L105.19 22.85Q102.49 22.85 101.19 20.9 99.89 18.95 99.89 15.5L99.89 15.5Q99.89 10.6 102.14 4.08 104.39-2.45 109.09-10.3L109.09-10.3Q109.09-17.6 108.99-20.45L108.99-20.45Q108.94-21.9 110.14-22.75 111.34-23.6 113.14-23.6L113.14-23.6Q114.19-23.6 114.67-23.18 115.14-22.75 115.19-21.5L115.19-21.5Q115.19-20.25 115.24-19.65L115.24-19.65Q116.84-21.65 118.39-22.53 119.94-23.4 121.69-23.4L121.69-23.4Q124.49-23.4 126.27-21.15 128.04-18.9 128.04-15.25L128.04-15.25Q128.04-12.6 127.19-10.1 126.34-7.6 124.84-5.55L124.84-5.55Q125.89-5.25 126.59-5.25L126.59-5.25Q128.24-5.25 129.74-6.45 131.24-7.65 133.59-10.45L133.59-10.45Q134.19-11.15 134.94-11.15L134.94-11.15ZM115.14-4.55Q116.94-4.95 118.47-6.53 119.99-8.1 120.89-10.43 121.79-12.75 121.79-15.3L121.79-15.3Q121.79-16.8 121.19-17.57 120.59-18.35 119.59-18.35L119.59-18.35Q117.79-18.35 115.24-14.55L115.24-14.55Q115.19-12.35 115.19-8.1L115.19-8.1Q115.19-5.8 115.14-4.55L115.14-4.55ZM105.59 17.95Q106.94 17.95 107.84 12.08 108.74 6.2 108.99-2.55L108.99-2.55Q106.84 2.45 105.59 7 104.34 11.55 104.34 14.65L104.34 14.65Q104.34 16.25 104.72 17.1 105.09 17.95 105.59 17.95L105.59 17.95ZM138.84-26.6Q136.74-26.6 135.69-27.58 134.64-28.55 134.64-30.3L134.64-30.3Q134.64-32.05 136.01-33.23 137.39-34.4 139.44-34.4L139.44-34.4Q141.29-34.4 142.44-33.5 143.59-32.6 143.59-30.95L143.59-30.95Q143.59-28.95 142.29-27.78 140.99-26.6 138.84-26.6L138.84-26.6ZM138.44 0.25Q135.19 0.25 133.71-2.05 132.24-4.35 132.24-8.15L132.24-8.15Q132.24-10.4 132.81-13.93 133.39-17.45 134.29-20.5L134.29-20.5Q134.74-22.1 135.49-22.7 136.24-23.3 137.89-23.3L137.89-23.3Q140.44-23.3 140.44-21.6L140.44-21.6Q140.44-20.35 139.49-15.8L139.49-15.8Q138.29-10.3 138.29-8.35L138.29-8.35Q138.29-6.85 138.69-6.05 139.09-5.25 140.04-5.25L140.04-5.25Q140.94-5.25 142.29-6.5 143.64-7.75 145.89-10.45L145.89-10.45Q146.49-11.15 147.24-11.15L147.24-11.15Q147.89-11.15 148.26-10.55 148.64-9.95 148.64-8.9L148.64-8.9Q148.64-6.9 147.69-5.8L147.69-5.8Q142.74 0.25 138.44 0.25L138.44 0.25ZM148.14 0.25Q146.24 0.25 145.46-1.75 144.69-3.75 144.69-8.15L144.69-8.15Q144.69-14.65 146.54-20.5L146.54-20.5Q146.99-21.95 148.01-22.63 149.04-23.3 150.89-23.3L150.89-23.3Q151.89-23.3 152.29-23.05 152.69-22.8 152.69-22.1L152.69-22.1Q152.69-21.3 151.94-18.5L151.94-18.5Q151.44-16.5 151.14-15 150.84-13.5 150.64-11.3L150.64-11.3Q152.29-15.6 154.34-18.3 156.39-21 158.36-22.15 160.34-23.3 161.99-23.3L161.99-23.3Q165.24-23.3 165.24-20.05L165.24-20.05Q165.24-18.1 164.14-13L164.14-13Q163.19-8.65 163.19-7.25L163.19-7.25Q163.19-5.25 164.64-5.25L164.64-5.25Q165.64-5.25 167.01-6.48 168.39-7.7 170.69-10.45L170.69-10.45Q171.29-11.15 172.04-11.15L172.04-11.15Q172.69-11.15 173.06-10.55 173.44-9.95 173.44-8.9L173.44-8.9Q173.44-6.9 172.49-5.8L172.49-5.8Q170.34-3.15 167.86-1.45 165.39 0.25 162.24 0.25L162.24 0.25Q159.69 0.25 158.39-1.23 157.09-2.7 157.09-5.5L157.09-5.5Q157.09-6.9 157.79-10.5L157.79-10.5Q158.44-13.65 158.44-14.85L158.44-14.85Q158.44-15.65 157.89-15.65L157.89-15.65Q157.24-15.65 156.06-13.98 154.89-12.3 153.66-9.55 152.44-6.8 151.69-3.75L151.69-3.75Q151.14-1.4 150.41-0.58 149.69 0.25 148.14 0.25L148.14 0.25ZM194.98-11.05Q195.63-11.05 196.01-10.43 196.38-9.8 196.38-8.85L196.38-8.85Q196.38-7.7 196.03-7.05 195.68-6.4 194.93-5.9L194.93-5.9Q190.63-3 188.63-1.6L188.63-1.6 185.43 0.55Q183.53 10.9 180.46 16.82 177.38 22.75 172.63 22.75L172.63 22.75Q170.08 22.75 168.48 21.18 166.88 19.6 166.88 17.05L166.88 17.05Q166.88 13.5 169.68 9.43 172.48 5.35 180.18-0.6L180.18-0.6 180.48-2.55Q179.63-1.2 178.26-0.48 176.88 0.25 175.53 0.25L175.53 0.25Q172.43 0.25 170.58-2 168.73-4.25 168.73-7.9L168.73-7.9Q168.73-11.9 170.58-15.48 172.43-19.05 175.51-21.23 178.58-23.4 182.03-23.4L182.03-23.4Q183.13-23.4 183.51-22.98 183.88-22.55 184.13-21.45L184.13-21.45Q185.08-21.65 186.33-21.65L186.33-21.65Q187.58-21.65 188.11-21.28 188.63-20.9 188.63-19.8L188.63-19.8Q188.63-19.2 188.58-18.85L188.58-18.85Q188.38-17.3 187.33-11L187.33-11Q187.13-9.8 186.91-8.38 186.68-6.95 186.43-5.35L186.43-5.35Q190.28-8.35 193.83-10.65L193.83-10.65Q194.48-11.05 194.98-11.05L194.98-11.05ZM177.33-4.8Q178.48-4.8 179.53-6.2 180.58-7.6 181.03-10.2L181.03-10.2 182.63-18.75Q180.58-18.7 178.83-17.18 177.08-15.65 176.03-13.15 174.98-10.65 174.98-7.85L174.98-7.85Q174.98-6.3 175.61-5.55 176.23-4.8 177.33-4.8L177.33-4.8ZM173.18 17.9Q174.43 17.9 176.01 14.9 177.58 11.9 179.03 5.35L179.03 5.35Q175.18 8.65 173.48 11.3 171.78 13.95 171.78 15.95L171.78 15.95Q171.78 16.8 172.11 17.35 172.43 17.9 173.18 17.9L173.18 17.9Z" opacity="1" transform="matrix(1,0,0,1,0,0)" fill="#010c80" class="wordmark-text-0" data-fill-palette-color="primary" id="text-0"></path></svg></g></svg></g></svg></g></svg></g><g><svg viewBox="0 0 102.64828045815442 196.0997098305085" height="196.0997098305085" width="102.64828045815442"><g><svg xmlns="http://www.w3.org/2000/svg" xmlns:xlink="http://www.w3.org/1999/xlink" version="1.1" x="0" y="0" viewBox="19.682355880737305 3.5 35.572967529296875 67.95874786376953" enable-background="new 0 0 75 75" xml:space="preserve" height="196.0997098305085" width="102.64828045815442" class="icon-icon-0" data-fill-palette-color="accent" id="icon-0"><path d="M21.2 59.5c-1.1-2.6-4.2-12.2 3.8-24.7C36 18 31.7 3.5 31.7 3.5S46 8.8 41.7 37.5c-1 6.5-0.9 9 2 9.4 5 0.7 3.1-19.7 3.1-19.7s3.9 2 6.8 12.1c1.5 5.3 1.8 9.5 1.6 12.5-1 18.1-16.5 19.6-16.5 19.6S26.9 73 21.2 59.5z" fill="#77d4fc" data-fill-palette-color="accent"></path></svg></g></svg></g></svg></g><defs></defs></svg><rect width="395.5199999999999" height="134.1982868580389" fill="none" stroke="none" visibility="hidden"></rect></g></svg></g></svg>