<?xml version="1.0" encoding="iso-8859-1"?>
<!-- Uploaded to: SVG Repo, www.svgrepo.com, Generator: SVG Repo Mixer Tools -->
<svg height="800px" width="800px" version="1.1" id="Layer_1" xmlns="http://www.w3.org/2000/svg" xmlns:xlink="http://www.w3.org/1999/xlink" 
	 viewBox="0 0 460 460" xml:space="preserve">
<g>
	<path style="fill:#FFC61B;" d="M230,0C102.975,0,0,102.975,0,230s102.975,230,230,230c5.515,0,10.984-0.194,16.402-0.576
		l206.884-284.818C428.493,74.339,337.928,0,230,0z"/>
	<path style="fill:#D48B07;" d="M106.74,319.75l139.661,139.661C365.771,450.999,460,351.51,460,230
		c0-19.1-2.344-37.649-6.732-55.394l-34.356-34.356L106.74,319.75z"/>
	<polygon style="fill:#FFFFFF;" points="40.333,160.25 106.738,160.25 116.738,150.25 106.738,140.25 40.333,140.25 	"/>
	<polygon style="fill:#FFFFFF;" points="60.336,319.75 106.74,319.75 116.74,309.75 106.74,299.75 60.336,299.75 	"/>
	<polygon style="fill:#FFFFFF;" points="23,266.583 106.74,266.583 116.74,256.583 106.74,246.583 23,246.583 	"/>
	<polygon style="fill:#FFFFFF;" points="60.336,213.417 106.74,213.417 116.74,203.417 106.74,193.417 60.336,193.417 	"/>
	<polygon style="fill:#71E2F0;" points="239.414,214.391 262.827,409.5 418.914,319.75 418.914,140.25 	"/>
	<polygon style="fill:#FFFFFF;" points="400.96,273.466 400.96,309.366 343.601,342.349 343.601,306.449 372.573,279.02 	"/>
	<polygon style="fill:#C2FBFF;" points="400.96,255.516 400.96,273.466 343.601,306.449 343.601,288.499 	"/>
	<polygon style="fill:#C2FBFF;" points="262.827,206.587 262.827,409.5 106.74,319.75 106.74,140.25 	"/>
	<polygon style="fill:#71E2F0;" points="106.738,140.25 161.302,171.623 264.678,141.249 317.384,81.868 262.825,50.5 	"/>
	<polygon style="fill:#38C6D9;" points="208.27,198.63 262.825,230 418.912,140.25 364.359,108.875 260.217,139.687 	"/>
	<polygon style="fill:#FFFFFF;" points="208.27,276.672 161.302,249.666 161.302,171.623 206.575,175.159 208.27,198.63 	"/>
	<polygon style="fill:#C2FBFF;" points="161.302,171.623 317.384,81.868 364.359,108.875 208.27,198.63 	"/>
</g>
</svg>